<?xml version="1.0" standalone="no"?>
<!DOCTYPE svg PUBLIC "-//W3C//DTD SVG 20010904//EN"
 "http://www.w3.org/TR/2001/REC-SVG-20010904/DTD/svg10.dtd">
<svg version="1.0" xmlns="http://www.w3.org/2000/svg"
 width="260.000000pt" height="260.000000pt" viewBox="0 0 260.000000 260.000000"
 preserveAspectRatio="xMidYMid meet">
<metadata>
Created by potrace 1.14, written by Peter Selinger 2001-2017
</metadata>
<g transform="translate(0.000000,260.000000) scale(0.100000,-0.100000)"
fill="#000000" stroke="none">
<path d="M2265 2453 c-19 -13 -18 -14 12 -8 17 3 34 1 37 -4 3 -5 0 -9 -7 -8
-31 1 -45 -4 -51 -18 -5 -13 -2 -13 18 1 16 10 26 12 31 5 3 -6 3 -11 -1 -11
-4 0 1 -7 12 -15 18 -15 18 -15 0 -8 -14 5 -17 3 -11 -7 6 -10 4 -11 -6 -4
-26 16 -52 15 -45 -1 3 -9 0 -25 -7 -35 -14 -23 -29 -27 -21 -6 3 8 1 16 -4
20 -5 3 -9 -1 -10 -9 -1 -8 -3 -22 -4 -30 -2 -20 -15 -19 -27 3 -6 9 -11 12
-11 7 0 -6 6 -17 13 -24 10 -11 9 -13 -5 -8 -10 3 -20 2 -23 -4 -4 -5 -11 -7
-16 -4 -5 4 -9 1 -9 -4 0 -14 13 -14 28 1 9 9 12 9 12 -2 0 -11 3 -11 12 -2
15 15 31 16 26 0 -2 -6 -12 -12 -22 -14 -32 -5 -46 -13 -46 -29 0 -9 5 -13 10
-10 6 4 8 10 6 14 -3 4 3 7 13 8 10 1 18 -4 18 -11 0 -7 -5 -13 -11 -12 -6 1
-11 -3 -11 -9 0 -5 3 -9 7 -8 13 5 9 -4 -9 -18 -10 -9 -14 -9 -10 -2 5 7 -4
21 -22 34 -17 12 -27 27 -24 32 3 6 1 7 -6 3 -8 -6 -9 -12 -2 -20 6 -7 7 -17
3 -21 -4 -5 -2 -5 5 -1 6 3 15 1 19 -5 5 -8 3 -9 -6 -4 -10 6 -12 4 -7 -8 3
-9 1 -19 -5 -23 -6 -4 -8 -3 -5 3 4 6 0 13 -8 17 -8 3 -17 1 -20 -4 -4 -6 0
-10 7 -10 7 0 2 -6 -12 -14 -16 -8 -29 -9 -37 -3 -9 6 -11 1 -8 -22 4 -34 -10
-43 -18 -11 -3 11 -1 17 4 14 5 -3 4 6 -3 20 -13 30 -20 27 -23 -9 -2 -17 1
-23 8 -18 7 3 4 -3 -6 -14 -16 -19 -14 -33 5 -33 5 0 6 5 2 12 -4 7 -3 8 5 4
15 -10 3 -29 -15 -22 -8 3 -14 -1 -14 -10 0 -10 -6 -14 -15 -10 -8 3 -15 1
-15 -4 0 -5 -7 -7 -15 -4 -8 4 -15 1 -15 -6 0 -6 5 -8 10 -5 6 3 10 1 10 -5 0
-6 5 -8 13 -3 19 11 47 14 47 4 0 -5 -8 -8 -17 -6 -27 4 -44 -14 -33 -35 14
-26 1 -31 -32 -14 -17 9 -27 11 -24 6 3 -6 -1 -13 -9 -16 -10 -4 -15 -1 -13 9
2 7 -1 14 -7 14 -5 0 -9 -6 -8 -12 3 -17 -65 -59 -80 -50 -7 4 -6 0 2 -11 11
-13 16 -14 22 -4 7 11 9 11 9 0 0 -10 3 -10 14 0 8 7 12 16 10 20 -2 4 1 10 7
14 8 5 10 2 5 -7 -6 -10 -4 -10 6 1 7 8 19 16 26 18 6 1 18 3 25 5 6 1 11 -4
9 -11 -2 -9 4 -12 17 -7 11 3 22 2 24 -3 7 -10 -34 -10 -50 1 -7 4 -21 3 -30
-3 -17 -10 -17 -10 1 -8 10 2 21 -4 23 -12 3 -9 1 -11 -4 -5 -16 19 -44 10
-76 -26 -18 -19 -26 -28 -19 -19 19 26 14 32 -12 13 -13 -10 -21 -22 -18 -27
3 -5 -1 -6 -8 -1 -8 5 -11 3 -8 -6 3 -8 11 -13 17 -11 6 1 11 -3 11 -9 0 -6
-6 -8 -12 -5 -7 3 -21 9 -30 12 -20 7 -25 25 -5 21 6 -1 11 4 9 11 -1 8 2 11
9 6 8 -4 9 -3 5 4 -4 8 -2 10 7 6 8 -3 18 -1 21 4 3 6 -1 12 -8 15 -9 4 -30
-10 -52 -33 -35 -35 -39 -37 -51 -22 -12 15 -13 14 -3 -5 6 -13 15 -23 21 -23
6 0 7 -5 4 -10 -5 -8 -11 -7 -21 1 -10 8 -14 8 -14 0 0 -6 5 -11 11 -11 5 0 8
-4 5 -9 -3 -5 1 -11 9 -15 8 -3 17 -1 20 5 4 5 10 7 15 4 4 -3 11 3 14 12 4 9
1 20 -6 25 -8 5 -9 8 -2 8 6 0 17 -7 24 -15 10 -12 10 -15 0 -15 -10 0 -10 -3
0 -15 11 -13 10 -14 -5 -9 -14 6 -16 4 -10 -7 8 -12 6 -12 -8 0 -24 20 -21 2
6 -28 12 -14 14 -19 5 -12 -19 14 -24 3 -8 -17 7 -9 7 -9 -2 -2 -7 6 -19 2
-34 -13 -26 -24 -33 -47 -9 -27 20 16 19 3 0 -17 -8 -8 -13 -18 -11 -22 3 -4
-4 -12 -15 -19 -12 -8 -19 -9 -19 -1 0 5 -5 7 -11 3 -8 -4 -8 -9 0 -17 8 -8
19 -6 41 6 17 10 30 14 30 9 0 -11 -34 -25 -64 -26 -11 -1 -21 -7 -24 -14 -2
-7 2 -10 11 -6 8 3 18 1 22 -5 4 -7 0 -8 -11 -4 -10 4 -15 2 -11 -3 8 -13 -10
-41 -20 -31 -4 5 -1 12 6 16 8 5 9 11 3 15 -5 3 -15 -1 -22 -9 -16 -20 -30
-19 -30 2 0 22 -13 8 -15 -17 -1 -16 3 -19 24 -15 26 5 26 5 3 -5 -16 -7 -30
-7 -44 1 -11 6 -23 7 -26 3 -4 -4 -1 -9 6 -11 6 -3 12 -9 12 -14 0 -6 -9 -4
-21 4 -11 8 -29 12 -40 10 -16 -5 -18 -8 -7 -14 10 -7 9 -9 -4 -9 -17 0 -31
15 -34 38 -1 6 2 10 7 6 5 -3 7 -10 4 -15 -8 -12 6 -11 25 1 13 9 13 10 0 10
-13 0 -13 1 0 10 13 9 13 10 0 10 -13 0 -13 2 0 9 8 6 18 7 24 4 5 -4 6 -1 1
6 -6 10 -3 11 14 2 11 -7 21 -8 21 -4 0 4 4 2 9 -6 6 -9 11 -10 15 -2 4 6 2
11 -3 11 -6 0 -11 5 -11 11 0 8 6 7 17 -2 9 -8 14 -9 11 -4 -4 6 -3 17 3 25 6
11 9 12 9 2 0 -7 5 -10 11 -6 6 4 7 9 2 13 -5 3 -1 14 9 24 12 11 18 13 18 5
0 -9 4 -8 10 2 8 13 10 13 10 0 0 -9 6 -6 16 9 13 18 18 20 25 10 5 -9 7 -2 4
19 -2 18 0 30 4 27 5 -2 7 7 5 20 -2 21 0 23 16 15 16 -8 18 -7 17 10 -1 11
-4 20 -8 20 -4 0 -14 3 -22 6 -18 6 -50 -24 -43 -42 3 -7 -7 -20 -20 -29 -16
-10 -23 -22 -20 -31 4 -11 1 -14 -12 -10 -11 4 -22 -2 -30 -15 -10 -15 -10
-19 -1 -14 7 5 10 3 7 -6 -3 -8 -14 -13 -24 -12 -10 1 -13 0 -6 -3 18 -9 14
-20 -8 -21 -11 -1 -18 2 -16 6 3 4 1 13 -4 21 -5 8 -4 23 1 34 9 19 9 19 -4 4
-11 -14 -17 -15 -28 -5 -7 7 -6 3 4 -9 23 -28 21 -37 -5 -23 -17 8 -15 4 7
-15 37 -31 19 -35 -21 -4 -15 13 -24 17 -20 10 9 -16 -12 -44 -27 -35 -6 3 -7
1 -3 -5 4 -6 12 -9 20 -6 7 3 13 -2 13 -10 0 -22 -34 -15 -48 11 -13 24 -29
31 -29 13 0 -5 5 -10 11 -10 5 0 7 -5 4 -10 -4 -6 -16 -3 -32 10 -21 16 -29
18 -41 8 -12 -10 -16 -10 -19 0 -3 6 -10 12 -16 12 -8 0 -7 -4 1 -12 19 -19
14 -32 -5 -17 -15 11 -16 11 -5 -1 16 -19 16 -35 -1 -21 -8 6 -17 8 -21 4 -4
-4 -5 -1 -1 7 8 22 -32 45 -51 29 -8 -7 -12 -19 -9 -26 3 -9 0 -13 -7 -10 -7
2 -12 14 -11 26 2 13 -1 20 -7 16 -6 -3 -10 -13 -10 -21 0 -8 -5 -14 -12 -14
-6 0 -3 -6 7 -14 11 -8 25 -12 32 -9 7 3 13 -1 13 -8 0 -8 5 -6 13 5 11 15 17
17 35 7 12 -6 22 -8 22 -4 0 4 5 1 10 -7 8 -12 10 -12 10 -1 0 11 3 11 17 0
15 -12 16 -12 8 1 -8 13 -7 13 10 0 15 -12 17 -12 10 -1 -5 10 -4 12 4 7 6 -4
8 -12 5 -18 -4 -6 -1 -9 6 -6 20 6 21 37 2 47 -9 5 -14 13 -10 17 11 11 40
-17 34 -33 -4 -10 -1 -11 14 -3 25 13 30 13 30 -4 0 -16 -27 -29 -42 -20 -6 4
-8 -1 -3 -15 4 -13 2 -21 -5 -21 -6 0 -8 5 -5 10 3 6 -4 10 -16 10 -19 0 -20
-2 -8 -17 12 -16 12 -17 -2 -6 -9 7 -20 9 -25 5 -4 -4 -2 1 5 11 8 9 11 20 8
23 -3 3 -12 -3 -19 -15 -7 -12 -17 -21 -22 -21 -5 0 -1 9 9 20 19 21 8 29 -13
8 -8 -8 -15 -8 -24 -1 -19 15 -50 12 -44 -3 8 -20 -13 -28 -31 -13 -13 11 -17
10 -29 -6 -12 -16 -14 -16 -14 -3 0 9 9 20 20 23 11 4 18 11 15 16 -4 5 -14 5
-26 -2 -12 -6 -23 -8 -26 -5 -4 3 -12 1 -19 -5 -9 -7 -14 -5 -19 10 -3 12 -11
21 -16 21 -6 0 -7 -5 -3 -11 4 -7 1 -10 -7 -7 -8 3 -24 -4 -37 -15 -17 -16
-25 -18 -34 -9 -9 9 -7 16 7 32 10 11 16 23 13 26 -3 3 -16 -8 -28 -23 -13
-15 -20 -20 -17 -11 4 11 -2 25 -15 38 -23 21 -48 27 -48 10 0 -5 -4 -10 -10
-10 -18 0 -10 18 10 25 11 4 17 11 14 17 -4 7 -2 8 4 4 12 -7 17 6 6 17 -9 8
-35 -4 -29 -14 3 -4 -4 -13 -16 -19 -17 -10 -20 -9 -14 1 6 8 4 11 -6 7 -10
-4 -15 1 -16 13 -2 17 0 18 13 4 9 -8 21 -15 27 -15 7 0 3 8 -8 17 -18 14 -18
15 -2 9 13 -4 17 -2 14 6 -2 7 -11 12 -21 10 -9 -2 -16 1 -16 7 0 5 -8 18 -18
27 -16 17 -16 18 0 11 10 -3 18 -3 18 2 0 16 -13 20 -31 10 -15 -8 -17 -6 -12
8 6 16 5 17 -12 3 -11 -9 -16 -10 -11 -2 4 6 3 12 -3 12 -5 0 -13 9 -16 20 -4
11 -11 17 -17 14 -7 -4 -8 -2 -4 4 3 6 -2 16 -13 21 -14 8 -21 8 -24 -2 -4 -9
-6 -9 -6 1 -1 8 -6 10 -13 6 -9 -5 -8 -2 1 9 20 25 8 30 -17 7 -12 -11 -25
-20 -29 -20 -4 1 3 10 16 20 13 11 17 20 10 20 -7 0 -22 -8 -33 -17 -21 -18
-21 -18 -4 3 22 25 23 35 3 28 -8 -4 -15 -1 -15 6 0 6 4 9 9 6 13 -8 32 19 26
36 -4 9 0 15 10 15 18 0 18 -2 5 -27 -8 -16 -7 -18 9 -15 19 3 33 -14 35 -44
1 -8 7 -15 14 -17 7 -1 8 0 2 3 -5 2 -10 9 -10 14 0 5 11 3 24 -6 21 -14 25
-14 36 0 7 8 17 15 23 15 5 0 2 -9 -8 -20 -13 -14 -25 -18 -39 -14 -18 6 -19
5 -7 -10 10 -12 17 -14 27 -5 13 11 18 5 15 -14 -1 -5 4 -6 11 -2 7 4 5 0 -5
-8 -10 -8 -14 -18 -9 -21 5 -3 12 -2 16 1 4 4 13 8 22 9 13 2 13 0 2 -14 -11
-15 -11 -15 3 -5 9 7 19 10 22 6 4 -3 7 0 7 7 0 7 3 10 6 7 4 -4 1 -14 -7 -24
-9 -11 -10 -14 -2 -9 9 5 11 2 7 -8 -3 -9 -1 -16 6 -16 6 0 8 -5 4 -11 -4 -8
-9 -7 -16 2 -8 12 -9 12 -6 0 2 -8 12 -15 21 -17 9 -1 15 1 12 6 -3 4 3 14 13
21 16 13 16 13 2 -5 -12 -16 -12 -18 -1 -11 10 6 12 4 6 -5 -6 -9 -4 -11 6 -5
11 7 11 5 -1 -11 -14 -18 -14 -18 3 -5 9 7 17 10 17 5 0 -5 4 -3 9 5 6 9 11
10 15 2 4 -6 1 -11 -6 -11 -8 0 -6 -5 5 -11 9 -6 15 -15 11 -21 -4 -6 2 -8 17
-3 13 3 19 3 13 -2 -7 -5 -4 -14 8 -25 10 -10 18 -13 18 -8 0 6 5 10 11 10 5
0 7 -5 4 -10 -10 -16 18 -7 33 10 11 13 12 13 10 0 -2 -8 -7 -18 -13 -23 -14
-10 27 -4 44 7 10 7 12 5 6 -5 -7 -12 -5 -12 6 -1 12 11 12 14 -1 22 -8 5 -18
6 -22 4 -4 -3 -8 0 -8 6 0 6 10 15 23 20 12 5 16 9 9 9 -7 1 -23 -6 -36 -14
-22 -14 -25 -14 -41 2 -10 9 -32 17 -49 18 -24 0 -30 4 -28 18 2 9 -2 17 -8
17 -6 0 -8 6 -4 13 6 10 4 10 -7 0 -18 -18 -34 -16 -19 2 15 18 37 19 43 3 4
-10 6 -10 6 0 1 19 -27 26 -46 11 -14 -12 -15 -11 -9 7 4 14 1 26 -9 34 -8 7
-15 8 -15 3 0 -5 -7 -18 -15 -29 -14 -18 -14 -18 -10 4 2 12 7 26 10 32 3 5 0
21 -8 36 -12 22 -15 24 -20 10 -4 -9 -3 -15 2 -12 5 3 12 -1 15 -10 9 -25 8
-26 -19 -8 -24 16 -25 18 -10 40 8 13 15 27 15 31 0 4 -5 0 -11 -9 -10 -18
-40 -26 -38 -10 4 21 -2 32 -13 26 -8 -5 -9 -2 -5 9 3 10 2 17 -3 17 -6 0 -11
-7 -11 -15 -1 -8 -3 -19 -4 -25 -1 -5 -3 -13 -4 -17 -1 -5 -5 -1 -11 7 -5 9
-5 19 2 27 15 19 2 29 -17 13 -9 -8 -15 -9 -15 -2 0 6 8 16 18 21 9 6 12 11 7
11 -6 0 -16 -5 -23 -12 -7 -7 -12 -8 -12 -2 0 6 5 15 11 21 14 14 2 36 -13 27
-6 -4 -17 1 -25 11 -7 11 -13 14 -13 9 0 -6 5 -15 11 -21 9 -9 7 -12 -9 -10
-14 1 -21 7 -19 17 1 9 -5 14 -15 14 -10 -1 -28 17 -44 42 -16 24 -33 43 -38
43 -28 -3 -38 4 -16 11 25 8 25 8 2 9 -13 1 -20 5 -17 11 4 6 1 9 -7 8 -7 -2
-12 2 -11 9 3 15 -20 11 -43 -7 -16 -14 -16 -13 -5 8 7 13 10 26 7 30 -3 3 -6
-1 -6 -9 0 -11 -2 -11 -10 1 -7 11 -5 17 8 22 16 6 15 7 -1 7 -10 1 -15 6 -12
11 4 6 1 9 -7 8 -8 -2 -12 4 -10 15 2 9 -2 17 -8 17 -6 0 -9 4 -5 10 3 5 13 6
23 3 9 -3 14 -3 10 1 -3 4 -14 9 -25 11 -10 2 -19 4 -21 4 -1 1 2 10 8 21 6
11 7 20 3 19 -21 -3 -24 2 -12 18 10 11 10 14 2 9 -8 -4 -13 -2 -13 4 0 6 -5
8 -11 4 -8 -5 -8 -9 1 -14 8 -5 7 -9 -6 -14 -25 -10 -29 0 -10 30 10 14 15 28
12 32 -3 3 -6 0 -6 -7 0 -7 -5 -9 -10 -6 -6 4 -7 12 -4 18 5 9 3 9 -6 0 -11
-10 -16 -9 -27 5 -13 15 -13 14 -3 -6 6 -12 16 -20 22 -16 7 5 8 2 3 -6 -6 -9
-4 -11 4 -5 7 4 5 -4 -4 -19 -20 -30 -31 -35 -16 -7 10 18 6 31 -10 31 -5 0
-7 -6 -5 -12 1 -7 1 -10 -1 -6 -2 4 -11 4 -19 1 -7 -3 -11 -10 -7 -16 4 -6 1
-7 -7 -2 -10 6 -10 11 3 20 9 7 13 16 9 20 -4 5 -1 5 5 1 7 -4 13 -2 13 4 0 7
-7 10 -15 7 -8 -4 -17 -2 -20 3 -3 4 1 10 7 13 7 3 3 4 -9 4 -22 -1 -34 -17
-12 -17 5 0 7 -5 3 -12 -5 -7 -2 -8 7 -3 8 5 3 -4 -10 -18 -26 -28 -42 -38
-21 -12 17 20 1 19 -24 -2 -12 -10 -18 -14 -13 -9 4 5 -1 19 -10 30 -17 20
-17 20 0 7 14 -11 17 -11 17 0 0 11 2 11 10 -1 8 -12 10 -12 10 -1 0 11 3 11
17 0 15 -13 15 -12 2 8 -7 12 -16 19 -19 15 -8 -12 -54 -10 -63 2 -5 6 -5 0
-2 -13 5 -17 4 -22 -5 -16 -9 5 -11 4 -6 -4 4 -6 11 -9 16 -6 14 9 23 -16 11
-28 -9 -9 -11 -8 -5 6 4 12 2 16 -8 12 -18 -7 -20 -34 -4 -54 8 -11 8 -13 -1
-7 -10 6 -13 -190 -13 -964 0 -774 3 -970 13 -964 9 6 9 4 1 -7 -12 -14 -12
-105 0 -116 3 -4 6 1 6 10 0 19 15 23 25 7 9 -15 32 -12 39 6 4 10 2 13 -6 8
-7 -5 -8 -3 -3 6 5 9 4 11 -4 6 -6 -4 -9 -12 -6 -17 9 -14 -3 -11 -30 7 -14 9
-25 21 -25 26 0 5 7 2 16 -6 18 -18 39 -22 28 -4 -4 7 -3 8 4 4 11 -7 17 6 13
27 -1 5 3 6 8 2 6 -3 8 -12 5 -19 -3 -8 -1 -17 5 -21 6 -3 11 1 11 9 0 9 5 16
11 16 7 0 5 -10 -5 -25 -9 -14 -14 -25 -11 -25 3 0 1 -10 -5 -22 -10 -21 -10
-21 3 -6 8 10 17 15 20 11 4 -3 7 -1 7 5 0 7 -5 12 -10 12 -6 0 -5 6 2 14 7 8
17 12 22 9 4 -3 2 -9 -5 -14 -11 -7 -11 -9 -1 -9 9 0 10 -5 2 -19 -19 -36 -10
-34 30 8 40 42 62 47 55 13 -1 -10 3 -26 11 -37 11 -15 17 -16 26 -7 7 7 16
12 22 12 6 0 5 -5 -2 -12 -7 -7 -12 -17 -12 -23 1 -12 18 16 18 29 0 10 22 26
37 26 6 0 3 -5 -5 -10 -10 -6 -11 -10 -2 -10 6 0 11 -5 10 -11 -4 -18 18 -21
35 -5 8 8 18 12 23 8 5 -4 2 1 -5 11 -14 17 -26 15 -26 -5 0 -6 -5 -13 -11
-15 -6 -2 -11 3 -11 12 0 8 3 15 7 15 3 0 6 9 7 20 2 20 -15 23 -30 5 -5 -6
-7 -4 -5 5 3 8 17 15 32 16 19 1 25 -3 22 -12 -3 -7 -1 -16 4 -19 5 -3 10 0
13 7 2 7 3 5 2 -4 -2 -9 4 -18 13 -20 14 -3 12 -7 -7 -25 -16 -15 -19 -23 -10
-28 7 -5 10 -4 7 1 -6 11 28 45 36 37 3 -4 1 -12 -5 -20 -9 -9 -8 -13 0 -13 6
0 11 5 11 11 0 8 4 8 14 0 11 -9 16 -9 22 0 4 7 3 10 -2 7 -5 -3 -15 0 -21 8
-22 23 3 25 32 2 25 -20 26 -22 9 -28 -17 -6 -16 -7 3 -12 16 -4 20 -1 18 11
-2 9 -4 16 -5 16 -1 0 -3 8 -5 17 -2 10 1 18 6 18 6 0 7 4 4 10 -7 12 -26 14
-23 3 2 -5 -1 -8 -7 -8 -5 0 -9 3 -7 8 3 10 -16 9 -22 -2 -7 -10 -32 -9 -41 2
-3 4 -2 5 1 2 4 -2 13 2 21 10 9 10 20 12 31 7 9 -5 28 -7 42 -6 14 1 30 -2
37 -8 7 -6 14 -5 18 1 4 7 13 6 26 -2 17 -10 23 -9 39 11 18 21 19 22 25 3 3
-10 12 -22 20 -25 17 -6 21 9 5 17 -6 3 -5 4 2 3 7 -2 13 -12 12 -24 0 -12 3
-19 7 -16 5 3 21 -3 36 -13 27 -17 28 -17 13 2 -14 17 -13 18 3 12 10 -4 16
-3 12 2 -3 5 -1 12 5 16 5 3 10 1 10 -6 0 -7 8 -5 20 6 23 21 27 9 5 -15 -14
-15 -14 -18 -1 -23 10 -4 13 -1 9 8 -3 8 2 18 11 21 14 5 14 9 4 22 -11 13
-10 15 4 9 13 -5 16 -1 12 19 -2 13 0 24 6 24 6 0 8 6 4 12 -4 7 -3 10 1 5 5
-4 19 0 32 8 13 9 23 11 23 6 0 -5 -8 -12 -18 -15 -18 -6 -27 -36 -10 -36 4 0
8 4 8 8 0 5 15 19 33 32 30 22 31 22 13 2 -20 -23 -9 -31 13 -9 8 6 11 7 8 1
-4 -7 9 -11 38 -10 38 0 43 2 32 15 -8 11 -5 11 9 -2 24 -20 38 -22 28 -4 -5
8 -2 8 9 -2 14 -11 20 -11 34 0 11 10 14 10 9 2 -4 -7 -4 -13 1 -14 4 0 16 -2
26 -4 9 -2 17 1 17 7 0 6 7 7 16 4 12 -5 15 -2 10 10 -5 14 -4 15 8 5 9 -7 17
-8 20 -2 3 5 0 12 -6 14 -9 4 -10 6 -1 6 6 1 18 -7 25 -16 18 -24 42 -29 34
-7 -5 14 -4 15 8 5 9 -7 17 -8 20 -2 3 5 0 12 -6 14 -10 4 -10 6 -1 6 7 1 18
-8 25 -19 7 -11 19 -20 26 -20 8 0 10 5 6 13 -5 8 -2 8 9 -2 17 -13 24 -3 10
15 -5 5 5 -4 20 -21 21 -22 27 -25 22 -10 -3 11 -3 16 1 12 10 -10 65 33 58
45 -4 7 -2 8 5 4 9 -6 9 -11 1 -21 -8 -10 -5 -17 12 -29 19 -14 20 -18 8 -26
-8 -5 -18 -6 -22 -4 -4 3 -8 0 -8 -5 0 -6 -5 -11 -11 -11 -5 0 -8 4 -5 9 3 5
-1 14 -9 21 -10 9 -15 9 -15 1 0 -6 5 -11 12 -11 9 0 9 -3 0 -12 -16 -16 -15
-25 4 -32 8 -3 12 -2 9 4 -3 6 -4 10 -1 10 2 0 13 3 23 6 15 6 16 4 6 -7 -7
-7 -13 -18 -13 -23 0 -6 7 -2 15 8 15 20 15 20 30 0 8 -10 15 -14 15 -9 1 6 6
1 11 -10 l9 -20 -3 20 c-2 11 -8 19 -14 18 -6 -1 -14 4 -17 12 -7 19 -2 19 36
-1 24 -12 32 -13 38 -3 10 15 1 41 -10 34 -5 -3 -15 2 -24 11 -9 8 -20 13 -26
9 -6 -3 -7 1 -4 10 5 12 9 13 20 4 11 -9 17 -9 28 0 11 9 15 8 20 -4 3 -9 11
-13 17 -9 6 3 15 1 19 -6 6 -9 10 -6 15 9 6 19 9 20 23 9 14 -11 15 -10 9 6
-6 16 -5 17 7 7 9 -7 17 -8 20 -2 3 5 0 12 -6 14 -9 4 -10 6 -1 6 6 1 18 -7
25 -16 18 -24 42 -29 34 -7 -5 14 -4 15 8 5 9 -7 17 -8 20 -2 3 5 0 12 -6 14
-9 4 -10 6 -1 6 6 1 19 -9 27 -20 l15 -21 30 22 c17 12 28 26 25 32 -4 7 -2 8
5 4 9 -6 9 -11 1 -21 -15 -18 16 -43 33 -26 8 8 14 6 24 -11 8 -15 12 -18 13
-8 0 13 1 13 10 0 9 -13 10 -13 10 0 0 9 9 23 20 33 11 9 20 12 20 7 0 -6 -7
-13 -15 -16 -8 -4 -15 -14 -14 -23 0 -12 2 -12 6 -2 5 11 7 11 14 0 7 -11 9
-10 9 4 0 9 4 17 8 17 4 0 8 -8 8 -18 0 -15 -7 -18 -38 -17 -21 1 -38 -2 -38
-7 0 -4 -5 -8 -11 -8 -5 0 -7 6 -3 12 5 9 2 9 -9 -1 -21 -17 -22 -27 -1 -35 8
-3 13 -2 10 3 -3 5 1 12 10 15 24 9 27 7 14 -9 -7 -9 -10 -18 -7 -22 4 -3 9 2
13 11 6 16 8 16 25 0 11 -10 19 -12 19 -6 0 7 -5 12 -12 12 -11 0 -2 15 10 15
4 1 20 8 36 16 18 10 25 19 17 23 -6 4 -11 2 -11 -3 0 -6 -5 -11 -10 -11 -6 0
-5 8 2 20 10 16 14 17 21 5 4 -8 14 -12 22 -9 18 7 20 -12 3 -22 -7 -5 -9 -2
-4 7 4 8 2 7 -6 -2 -13 -16 -19 -19 -37 -19 -5 0 -12 -7 -15 -16 -3 -9 -2 -12
5 -9 5 4 17 1 26 -6 13 -11 18 -10 34 10 11 13 20 20 20 17 1 -3 2 -12 3 -18
0 -7 8 -13 16 -14 9 0 10 1 2 3 -7 3 -10 8 -7 13 3 5 12 7 20 3 21 -7 19 12
-2 28 -17 13 -17 13 -3 -6 14 -18 13 -19 -1 -8 -9 7 -20 9 -24 5 -5 -4 -5 -1
0 7 6 10 4 12 -4 6 -10 -6 -11 -3 -2 13 9 17 8 21 -7 26 -13 4 -12 4 3 3 12
-2 19 -9 17 -18 -1 -9 5 -16 13 -16 9 0 14 6 11 14 -4 10 -1 11 14 3 15 -8 21
-6 28 6 8 15 10 15 15 -1 4 -9 11 -14 16 -11 5 3 14 -1 21 -9 10 -12 8 -14 -8
-10 -13 2 -19 -2 -18 -12 0 -9 -5 -18 -13 -21 -10 -3 -11 0 -5 9 12 20 14 38
3 45 -5 3 -9 0 -9 -6 0 -7 -7 -9 -16 -6 -10 4 -13 2 -8 -6 5 -7 3 -8 -6 -3 -8
5 -11 4 -7 -3 4 -5 17 -8 29 -4 14 3 19 2 14 -7 -4 -6 -12 -9 -17 -6 -5 4 -9
2 -9 -3 0 -5 11 -14 25 -20 33 -15 36 -15 34 1 -4 36 13 47 34 22 5 -6 7 -3 4
7 -3 9 1 22 8 28 12 10 14 7 10 -19 -2 -18 0 -29 6 -25 5 3 7 10 3 15 -7 13
15 41 27 33 5 -3 9 0 9 6 0 7 -8 9 -20 5 -15 -5 -18 -2 -15 14 2 11 -1 24 -7
27 -7 5 -9 0 -6 -14 3 -12 3 -21 -1 -20 -3 0 -13 0 -21 -1 -12 -1 -13 -3 -1
-10 8 -5 9 -11 3 -15 -14 -8 -21 15 -11 39 5 14 8 15 9 5 1 -10 4 -9 9 5 5 11
13 21 20 21 6 1 16 2 22 3 5 0 7 6 4 11 -4 6 -10 8 -15 5 -12 -7 -6 23 7 36 8
8 13 7 18 -2 5 -7 4 -10 -3 -5 -6 3 -13 2 -16 -3 -4 -5 -2 -12 3 -15 14 -9 42
5 34 17 -10 17 -12 58 -2 51 5 -3 9 0 9 5 0 6 4 11 8 11 5 0 9 -7 9 -14 0 -8
-5 -14 -10 -13 -5 1 -11 -3 -14 -9 -6 -18 21 -11 43 12 17 18 19 24 8 38 -8
11 -14 13 -19 7 -3 -6 -1 -11 4 -11 6 0 11 -5 11 -11 0 -8 -4 -8 -14 1 -8 6
-12 19 -10 28 5 15 4 15 -9 -1 -13 -15 -15 -15 -20 -2 -4 8 -3 14 1 14 20 -3
23 3 11 19 -13 15 -12 16 4 3 20 -16 24 1 4 18 -10 8 -17 7 -27 -2 -12 -10
-12 -9 -1 5 7 9 10 23 6 30 -4 7 0 5 8 -4 8 -10 17 -15 20 -11 4 3 2 12 -4 20
-9 10 -8 17 1 28 10 12 10 18 0 30 -7 8 -9 15 -4 15 4 0 -1 6 -11 14 -11 8
-24 12 -30 9 -6 -4 -6 -2 -2 3 5 5 12 9 15 9 4 0 17 9 29 19 16 14 19 24 13
36 -5 10 -6 21 -2 25 4 5 -2 5 -13 2 -17 -6 -18 -5 -5 6 19 16 23 36 10 51 -5
7 -7 16 -3 19 3 4 -5 7 -18 8 l-24 1 25 8 c14 4 21 8 16 9 -5 1 -2 8 5 17 12
15 11 16 -9 10 -14 -5 -22 -3 -22 4 0 6 5 8 10 5 6 -3 10 -2 10 2 0 5 -4 14
-10 21 -7 8 -7 9 1 3 6 -5 18 -7 27 -3 11 4 14 1 9 -11 -4 -10 -1 -17 6 -17 8
0 6 -4 -3 -10 -8 -5 -10 -10 -4 -10 19 0 22 11 14 41 -7 22 -5 31 8 39 14 8
14 9 2 10 -13 0 -13 1 0 10 12 7 10 9 -7 7 -12 0 -19 -5 -16 -11 3 -5 2 -6 -4
-3 -5 3 -10 0 -10 -8 0 -8 5 -11 11 -8 6 3 5 0 -3 -8 -10 -11 -15 -11 -18 -1
-3 6 -8 10 -12 8 -4 -3 -8 1 -8 9 0 8 4 12 8 10 3 -3 12 2 18 9 8 9 8 17 2 20
-5 3 -12 0 -14 -6 -4 -10 -6 -10 -6 0 -1 7 8 20 18 29 14 12 17 21 11 33 -5
10 -6 21 -2 25 4 5 -2 5 -13 2 -17 -6 -18 -5 -5 6 19 16 23 36 10 51 -5 7 -7
16 -3 19 3 4 -5 7 -18 8 l-24 1 25 8 c14 4 21 8 16 9 -5 1 -2 8 5 17 12 15 11
16 -9 10 -14 -5 -22 -3 -22 4 0 6 5 8 10 5 6 -3 10 -2 10 2 0 5 -4 14 -10 21
-7 8 -7 9 1 3 6 -5 18 -7 27 -3 11 4 14 1 9 -11 -4 -10 -1 -17 6 -17 8 0 6 -4
-3 -10 -8 -5 -10 -10 -4 -10 19 0 22 11 14 41 -7 22 -5 31 8 39 14 8 14 9 2
10 -13 0 -13 1 0 10 12 7 10 9 -7 7 -12 0 -19 -5 -16 -11 3 -5 2 -6 -4 -3 -5
3 -10 0 -10 -8 0 -8 5 -11 11 -8 6 3 5 0 -3 -8 -10 -11 -15 -11 -18 -1 -3 6
-8 10 -12 8 -4 -3 -8 1 -8 9 0 8 4 12 8 10 3 -3 12 2 18 9 8 9 8 17 2 20 -5 3
-12 0 -14 -6 -4 -10 -6 -10 -6 0 -1 7 8 20 18 29 14 12 17 21 11 33 -5 10 -6
21 -2 25 4 5 -2 5 -13 2 -17 -6 -18 -5 -5 6 20 16 23 36 9 53 -6 8 -8 14 -3
15 5 1 -2 5 -16 9 -24 8 -24 8 -3 9 13 1 22 4 22 9 -1 4 0 9 1 12 1 3 3 14 5
25 4 20 3 20 -11 1 -7 -11 -17 -16 -21 -11 -5 4 -2 10 5 12 10 4 10 8 0 21
-10 14 -10 15 1 5 7 -6 20 -9 29 -5 11 4 14 1 9 -11 -4 -10 -1 -17 6 -17 8 0
6 -4 -3 -10 -8 -5 -10 -10 -4 -10 19 0 22 11 14 41 -7 22 -5 31 8 39 14 8 14
9 2 10 -13 0 -13 1 0 10 12 7 10 9 -7 7 -12 0 -19 -5 -16 -11 3 -5 2 -6 -4 -3
-5 3 -10 0 -10 -8 0 -8 5 -11 11 -8 6 3 5 0 -3 -8 -10 -11 -15 -11 -18 -1 -3
6 -10 9 -16 5 -7 -3 -9 -3 -5 2 4 4 2 15 -5 24 -10 14 -10 14 4 3 13 -10 19
-10 28 2 7 9 8 17 2 20 -5 3 -12 0 -14 -6 -4 -10 -6 -10 -6 0 -1 7 8 20 18 29
11 9 17 21 14 27 -13 20 -10 66 4 66 8 0 11 -4 8 -10 -4 -6 1 -7 11 -3 14 5
15 7 1 15 -17 9 -12 38 5 38 6 0 7 -8 3 -17 -5 -15 -4 -16 7 -5 11 11 10 16
-6 28 -11 8 -25 14 -30 14 -6 0 -4 -5 4 -10 11 -7 11 -10 2 -10 -7 0 -11 -4
-7 -9 8 -14 -10 -22 -31 -14 -15 6 -14 7 6 15 18 7 20 11 10 23 -7 8 -16 13
-19 10 -4 -2 -8 2 -8 10 0 8 4 12 9 9 4 -3 8 0 8 5 0 6 4 11 9 11 6 0 8 -9 6
-20 -2 -12 0 -18 6 -15 5 4 7 11 4 16 -4 5 -2 9 3 9 6 0 12 -7 16 -15 3 -8 11
-15 18 -15 9 0 8 3 -2 10 -8 5 -10 10 -5 10 6 1 -3 8 -18 16 -15 8 -25 19 -22
24 3 5 -3 15 -12 22 -20 15 -28 38 -13 38 5 0 10 -7 10 -15 0 -8 4 -15 9 -15
12 0 8 27 -6 41 -6 6 -9 18 -6 27 5 11 2 13 -8 7 -11 -6 -12 -5 -2 5 9 9 9 19
2 33 -8 14 -8 18 0 13 6 -4 11 -2 11 3 0 6 -4 11 -10 11 -5 0 -10 5 -10 11 0
5 5 7 10 4 6 -3 10 1 10 10 0 9 -4 13 -10 10 -5 -3 -10 -1 -10 5 0 7 7 10 14
7 9 -4 17 2 21 14 4 10 11 17 16 14 5 -4 9 -1 9 5 0 7 -8 9 -20 5 -16 -5 -20
-2 -20 17 0 18 2 20 10 8 7 -11 10 -11 10 -2 0 8 5 10 13 5 18 -11 38 -13 31
-2 -3 5 -9 7 -14 4 -5 -3 -13 3 -19 12 -7 13 -10 14 -11 4 0 -8 -3 -11 -7 -7
-8 8 -10 14 -12 47 0 11 -5 18 -9 15 -5 -3 -8 9 -8 26 1 22 6 32 19 34 10 1
14 -2 11 -8 -4 -7 -2 -8 5 -4 6 4 9 11 6 16 -3 4 1 11 7 14 7 3 3 3 -8 1 -19
-5 -22 -1 -20 24 0 20 4 27 12 20 11 -9 24 -2 24 13 0 5 -4 7 -9 3 -5 -3 -13
-1 -16 5 -4 6 -1 9 6 8 6 -2 14 3 17 11 3 8 0 11 -7 7 -6 -4 -11 -3 -11 3 0 5
16 8 35 7 19 -2 37 0 40 4 2 4 -3 7 -13 7 -9 0 -26 1 -37 2 -19 2 -19 2 -2 12
15 9 16 13 5 26 -11 14 -10 15 12 9 l25 -7 -23 14 c-12 7 -19 17 -15 22 4 4 2
5 -4 1 -15 -9 -18 10 -3 19 12 7 4 25 -12 25 -5 0 -7 -8 -4 -17 6 -17 5 -17
-8 0 -10 13 -28 17 -75 17 -45 0 -60 -3 -55 -12 4 -7 3 -8 -4 -4 -23 14 -48
14 -67 -1z m200 -34 c-4 -5 2 -9 12 -9 15 0 16 -2 3 -10 -17 -11 -19 -9 -25
19 -2 12 0 19 6 16 5 -4 7 -11 4 -16z m29 -37 c2 -4 -5 -9 -17 -9 -17 -2 -19
0 -7 7 18 12 18 12 24 2z m-194 -28 c0 -3 -5 -2 -12 2 -8 5 -9 2 -5 -10 4 -9
3 -15 -2 -12 -5 3 -11 15 -14 26 -4 17 -2 18 14 9 10 -5 19 -12 19 -15z m-26
-32 c3 -5 -1 -9 -9 -9 -8 0 -15 4 -15 9 0 4 4 8 9 8 6 0 12 -4 15 -8z m-25
-29 c2 -2 -3 -3 -11 -3 -9 0 -19 7 -22 16 -6 15 -4 15 11 3 10 -7 20 -15 22
-16z m-1876 -78 c4 -8 1 -17 -6 -21 -7 -4 -9 -4 -5 1 4 4 3 14 -3 22 -7 8 -8
13 -1 13 5 0 12 -7 15 -15z m-25 -26 c-3 -8 -7 -3 -11 10 -4 17 -3 21 5 13 5
-5 8 -16 6 -23z m39 -16 c-4 -3 -2 -12 4 -20 6 -7 8 -13 4 -13 -4 0 -1 -7 6
-16 7 -9 14 -21 15 -28 1 -6 3 -15 5 -21 2 -5 0 -10 -6 -10 -5 0 -8 6 -7 14 3
13 1 13 -12 2 -14 -12 -16 -11 -10 3 3 9 10 16 16 16 5 0 2 7 -6 16 -9 8 -14
20 -11 25 4 5 1 9 -4 9 -6 0 -11 7 -11 15 0 8 5 15 12 15 6 0 8 -3 5 -7z
m2060 -68 c0 -8 -4 -15 -8 -15 -5 0 -7 -6 -5 -12 1 -7 1 -10 -1 -5 -3 4 -10 4
-16 0 -9 -5 -9 -3 -1 8 13 16 15 49 2 49 -4 0 -8 5 -8 12 0 6 7 4 18 -5 10
-10 19 -24 19 -32z m-27 -50 c0 -2 -6 -5 -13 -8 -8 -3 -14 1 -14 8 0 7 6 11
14 8 7 -3 13 -6 13 -8z m-1931 -46 c-12 -23 -21 -25 -17 -3 2 10 -3 19 -11 22
-8 3 -11 0 -7 -7 4 -7 2 -9 -8 -5 -12 5 -12 8 2 25 15 17 17 17 34 2 13 -12
15 -20 7 -34z m1965 33 c3 -5 -1 -9 -9 -9 -8 0 -15 4 -15 9 0 4 4 8 9 8 6 0
12 -4 15 -8z m-44 -32 c6 -11 8 -20 6 -20 -3 0 -10 9 -16 20 -6 11 -8 20 -6
20 3 0 10 -9 16 -20z m-1838 -56 c19 -28 23 -42 16 -51 -6 -7 -8 -13 -4 -13 3
0 9 0 14 0 4 0 7 5 7 12 0 6 6 13 13 16 11 3 12 0 3 -17 -7 -12 -9 -26 -6 -31
8 -14 -15 -24 -28 -11 -17 17 -31 13 -17 -4 7 -9 10 -18 6 -22 -3 -3 -6 -1 -6
6 0 7 -4 10 -9 7 -11 -7 -36 22 -27 31 3 3 6 1 6 -6 0 -7 5 -9 12 -5 7 5 5 11
-8 21 -18 13 -17 13 6 11 18 -2 25 2 28 17 2 12 0 16 -5 9 -4 -6 -15 -11 -23
-11 -8 0 -24 -4 -35 -7 l-20 -7 20 13 c21 13 27 50 11 65 -5 4 -7 3 -3 -2 3
-6 1 -17 -4 -25 -9 -13 -10 -13 -8 0 3 30 -1 41 -13 34 -6 -4 -8 -3 -5 3 14
22 53 6 79 -33z m1851 -29 c-7 -21 -12 -19 -10 4 0 11 5 18 9 15 4 -3 5 -11 1
-19z m-516 -14 c0 -11 -5 -18 -9 -15 -4 3 -5 11 -1 19 7 21 12 19 10 -4z m108
9 c-3 -5 -12 -10 -18 -10 -7 0 -6 4 3 10 19 12 23 12 15 0z m-168 -13 c0 -8
-6 -14 -14 -14 -9 0 -10 4 -2 14 6 7 12 13 14 13 1 0 2 -6 2 -13z m-1156 -31
c-9 -11 -10 -20 -1 -36 10 -18 14 -19 28 -8 15 11 15 11 5 -3 -7 -9 -12 -18
-10 -20 1 -3 -9 6 -22 20 -14 15 -28 25 -33 24 -17 -6 -7 16 14 31 25 18 36
13 19 -8z m1739 4 c0 -5 -2 -10 -4 -10 -3 0 -8 5 -11 10 -3 6 -1 10 4 10 6 0
11 -4 11 -10z m-1946 -38 c3 -5 -1 -9 -9 -9 -8 0 -12 4 -9 9 3 4 7 8 9 8 2 0
6 -4 9 -8z m46 -6 c0 -8 -7 -16 -15 -20 -12 -4 -13 -2 -2 14 14 24 17 25 17 6z
m1177 -5 c1 -11 -5 -25 -13 -32 -9 -7 -14 -8 -14 -1 0 6 4 13 10 17 5 3 7 12
3 20 -3 8 -1 15 4 15 5 0 9 -9 10 -19z m704 -8 c13 -16 12 -17 -3 -4 -10 7
-18 15 -18 17 0 8 8 3 21 -13z m-1827 -11 c2 -4 -4 -8 -14 -8 -10 0 -16 4 -14
8 3 4 9 8 14 8 5 0 11 -4 14 -8z m1860 -22 c-6 -6 -10 -3 -10 10 0 13 4 16 10
10 7 -7 7 -13 0 -20z m-1867 -6 c-3 -3 -12 -4 -19 -1 -8 3 -5 6 6 6 11 1 17
-2 13 -5z m197 -6 c-5 -8 -2 -9 10 -5 9 4 14 3 11 -2 -3 -5 5 -17 17 -26 21
-15 21 -16 3 -13 -32 5 -67 58 -39 58 3 0 2 -5 -2 -12z m901 -18 c4 -6 1 -9
-5 -8 -7 2 -14 -6 -16 -16 -1 -10 -9 -23 -16 -27 -11 -7 -10 -9 1 -9 11 0 11
-4 -1 -22 -20 -29 -46 -32 -43 -4 4 32 4 32 21 11 16 -20 16 -20 10 2 -4 12
-2 24 4 28 6 3 8 11 4 16 -6 11 13 39 27 39 4 0 11 -5 14 -10z m95 -4 c-7 -7
-13 -7 -20 0 -6 6 -3 10 10 10 13 0 16 -4 10 -10z m-1113 -2 c-3 -3 -12 -4
-19 -1 -8 3 -5 6 6 6 11 1 17 -2 13 -5z m37 -9 c-7 -16 -24 -21 -24 -6 0 8 7
13 27 20 1 1 0 -6 -3 -14z m-44 -29 c-7 -7 -13 -7 -20 0 -6 6 -3 10 10 10 13
0 16 -4 10 -10z m74 6 c2 -4 0 -14 -6 -22 -8 -12 -9 -11 -4 3 5 15 2 17 -17
12 -17 -5 -19 -4 -7 4 18 13 27 14 34 3z m166 -20 c0 -4 -9 -13 -20 -20 -19
-12 -20 -11 -8 8 13 20 28 27 28 12z m852 -6 c10 5 10 4 2 -5 -12 -13 -44 -5
-44 11 0 6 6 5 15 -2 8 -6 20 -8 27 -4z m-978 -23 c16 -9 17 -11 2 -16 -12 -5
-15 -3 -10 5 5 7 2 9 -7 6 -10 -4 -15 1 -17 15 0 12 2 17 6 11 4 -6 15 -15 26
-21z m-70 -11 c3 -5 -1 -9 -9 -9 -8 0 -12 4 -9 9 3 4 7 8 9 8 2 0 6 -4 9 -8z
m1040 -4 c-3 -4 -11 -5 -19 -1 -21 7 -19 12 4 10 11 0 18 -5 15 -9z m716 3 c0
-6 -4 -12 -8 -15 -5 -3 -9 1 -9 9 0 8 4 15 9 15 4 0 8 -4 8 -9z m-1724 -27 c1
-9 0 -13 -4 -10 -3 4 -7 14 -8 22 -1 9 0 13 4 10 3 -4 7 -14 8 -22z m77 13 c3
-8 2 -20 -3 -26 -5 -9 -7 -4 -7 13 0 29 2 32 10 13z m767 -3 c0 -8 -5 -12 -10
-9 -6 4 -8 11 -5 16 9 14 15 11 15 -7z m-790 -2 c0 -4 -10 -13 -22 -21 -23
-14 -23 -14 -4 8 20 22 26 25 26 13z m927 -14 c-3 -8 -6 -5 -6 6 -1 11 2 17 5
13 3 -3 4 -12 1 -19z m63 -2 c0 -3 -4 -8 -10 -11 -5 -3 -10 -1 -10 4 0 6 5 11
10 11 6 0 10 -2 10 -4z m685 -7 c11 -16 1 -19 -13 -3 -7 8 -8 14 -3 14 5 0 13
-5 16 -11z m-1449 -28 l25 -20 -25 3 c-28 3 -48 16 -25 16 11 0 11 2 -1 10 -8
5 -11 10 -7 10 5 0 20 -9 33 -19z m701 4 c0 -8 -4 -12 -9 -9 -5 3 -6 10 -3 15
9 13 12 11 12 -6z m730 -7 c-3 -8 -6 -5 -6 6 -1 11 2 17 5 13 3 -3 4 -12 1
-19z m-1667 -8 c0 -5 -5 -10 -11 -10 -5 0 -7 5 -4 10 3 6 8 10 11 10 2 0 4 -4
4 -10z m680 0 c0 -5 -4 -10 -10 -10 -5 0 -10 5 -10 10 0 6 5 10 10 10 6 0 10
-4 10 -10z m222 3 c-6 -2 -9 -10 -6 -15 4 -7 2 -8 -5 -4 -13 9 -5 26 12 25 9
0 8 -2 -1 -6z m-862 -24 c0 -5 -4 -9 -8 -9 -5 0 -9 7 -9 15 0 8 4 12 9 9 4 -3
8 -9 8 -15z m400 6 c15 -18 -1 -20 -19 -2 -10 10 -11 9 -6 -4 4 -10 2 -20 -3
-23 -7 -4 -10 29 -3 42 3 7 20 0 31 -13z m94 3 c-4 -6 1 -17 11 -24 16 -12 16
-13 -4 -11 -11 1 -21 6 -21 12 0 5 -5 3 -10 -5 -5 -8 -10 -11 -10 -6 0 9 30
46 37 46 2 0 1 -5 -3 -12z m-224 -4 c0 -8 -19 -13 -24 -6 -3 5 1 9 9 9 8 0 15
-2 15 -3z m-235 -24 c3 -5 1 -10 -4 -10 -6 0 -11 5 -11 10 0 6 2 10 4 10 3 0
8 -4 11 -10z m68 -21 c-8 -8 -13 -7 -18 2 -5 8 -4 10 3 5 7 -4 12 -2 12 5 0 7
3 9 7 6 4 -4 2 -12 -4 -18z m734 -6 c0 -9 -4 -10 -14 -2 -10 9 -13 8 -13 -1 0
-8 -3 -11 -6 -7 -9 9 3 24 19 24 7 0 14 -6 14 -14z m-797 -17 c-4 -4 -16 -4
-26 2 -16 9 -14 10 8 9 15 -1 23 -6 18 -11z m735 5 c3 -5 2 -12 -3 -15 -5 -3
-9 1 -9 9 0 17 3 19 12 6z m-531 -17 c4 -9 4 -19 1 -22 -3 -3 -5 0 -5 7 0 7
-4 10 -8 7 -5 -3 -9 1 -9 9 0 20 13 19 21 -1z m370 -13 c-2 -3 -9 0 -16 7 -8
8 -17 8 -32 1 -20 -10 -20 -9 -2 5 14 12 22 12 37 3 10 -6 16 -13 13 -16z m43
7 c-3 -8 -6 -5 -6 6 -1 11 2 17 5 13 3 -3 4 -12 1 -19z m60 0 c-3 -8 -6 -5 -6
6 -1 11 2 17 5 13 3 -3 4 -12 1 -19z m24 -1 c-10 -9 -11 -8 -5 6 3 10 9 15 12
12 3 -3 0 -11 -7 -18z m-606 -5 c-3 -3 -11 0 -18 7 -9 10 -8 11 6 5 10 -3 15
-9 12 -12z m155 8 c0 -5 -2 -10 -4 -10 -3 0 -8 5 -11 10 -3 6 -1 10 4 10 6 0
11 -4 11 -10z m120 -5 c0 -8 -2 -15 -4 -15 -2 0 -6 7 -10 15 -3 8 -1 15 4 15
6 0 10 -7 10 -15z m420 9 c0 -8 -19 -13 -24 -6 -3 5 1 9 9 9 8 0 15 -2 15 -3z
m-730 -24 c0 -5 -2 -10 -4 -10 -3 0 -8 5 -11 10 -3 6 -1 10 4 10 6 0 11 -4 11
-10z m350 -6 c0 -2 -7 -4 -15 -4 -8 0 -15 4 -15 10 0 5 7 7 15 4 8 -4 15 -8
15 -10z m146 -7 c1 -9 -2 -19 -6 -22 -5 -3 -7 4 -5 16 3 15 0 19 -11 15 -9 -3
-12 -2 -9 5 9 14 28 6 31 -14z m119 5 c-3 -3 -11 0 -18 7 -9 10 -8 11 6 5 10
-3 15 -9 12 -12z m890 8 c-3 -5 -12 -10 -18 -10 -7 0 -6 4 3 10 19 12 23 12
15 0z m-955 -15 c-7 -8 -17 -15 -23 -15 -6 0 -2 7 9 15 25 19 30 19 14 0z
m-500 -1 c0 -8 -19 -13 -24 -6 -3 5 1 9 9 9 8 0 15 -2 15 -3z m130 1 c0 -7
-30 -13 -34 -7 -3 4 4 9 15 9 10 1 19 0 19 -2z m65 -4 c-9 -8 -36 -10 -30 -2
2 4 11 8 20 8 8 0 13 -3 10 -6z m-125 -15 c0 -3 -4 -8 -10 -11 -5 -3 -10 -1
-10 4 0 6 5 11 10 11 6 0 10 -2 10 -4z m-62 -51 c-3 -3 -9 2 -12 12 -6 14 -5
15 5 6 7 -7 10 -15 7 -18z m1482 -10 c0 -8 -4 -15 -8 -15 -5 0 -9 7 -9 15 0 8
4 15 9 15 4 0 8 -7 8 -15z m-27 -40 c-3 -9 -8 -14 -10 -11 -3 3 -2 9 2 15 9
16 15 13 8 -4z m32 -26 c11 -16 1 -19 -13 -3 -7 8 -8 14 -3 14 5 0 13 -5 16
-11z m-23 -41 c-8 -8 -9 -4 -5 13 4 13 8 18 11 10 2 -7 -1 -18 -6 -23z m15
-220 c-3 -8 -6 -5 -6 6 -1 11 2 17 5 13 3 -3 4 -12 1 -19z m-26 -41 c-10 -9
-11 -8 -5 6 3 10 9 15 12 12 3 -3 0 -11 -7 -18z m34 -18 c11 -16 1 -19 -13 -3
-7 8 -8 14 -3 14 5 0 13 -5 16 -11z m-23 -41 c-8 -8 -9 -4 -5 13 4 13 8 18 11
10 2 -7 -1 -18 -6 -23z m15 -220 c-3 -8 -6 -5 -6 6 -1 11 2 17 5 13 3 -3 4
-12 1 -19z m-26 -41 c-10 -9 -11 -8 -5 6 3 10 9 15 12 12 3 -3 0 -11 -7 -18z
m34 -18 c11 -16 1 -19 -13 -3 -7 8 -8 14 -3 14 5 0 13 -5 16 -11z m-18 -31
c-3 -8 -6 -5 -6 6 -1 11 2 17 5 13 3 -3 4 -12 1 -19z m-7 -73 c0 -8 -2 -15 -4
-15 -2 0 -6 7 -10 15 -3 8 -1 15 4 15 6 0 10 -7 10 -15z m-16 -53 c3 -5 -1 -9
-9 -9 -8 0 -12 4 -9 9 3 4 7 8 9 8 2 0 6 -4 9 -8z m14 -117 c-3 -3 -9 2 -12
12 -6 14 -5 15 5 6 7 -7 10 -15 7 -18z m-763 -105 c3 -5 1 -10 -4 -10 -6 0
-11 5 -11 10 0 6 2 10 4 10 3 0 8 -4 11 -10z m674 -4 c9 -11 9 -16 -1 -22 -7
-4 -10 -4 -6 1 4 4 3 14 -3 22 -6 7 -9 13 -6 13 2 0 10 -6 16 -14z m-249 0 c0
-2 -8 -10 -17 -17 -16 -13 -17 -12 -4 4 13 16 21 21 21 13z m-990 -21 c0 -2
-6 -5 -13 -8 -8 -3 -14 1 -14 8 0 7 6 11 14 8 7 -3 13 -6 13 -8z m103 -8 c4 3
7 1 7 -5 0 -20 -19 -13 -30 11 -10 20 -10 20 3 5 8 -10 17 -15 20 -11z m247 3
c0 -5 -2 -10 -4 -10 -3 0 -8 5 -11 10 -3 6 -1 10 4 10 6 0 11 -4 11 -10z m80
-11 c0 -12 -27 -12 -35 1 -4 6 1 7 11 3 13 -5 15 -3 9 7 -5 9 -4 11 3 6 7 -4
12 -11 12 -17z m189 4 c-7 -10 -14 -19 -15 -21 -1 -2 -4 4 -8 13 -3 9 -2 13 3
10 5 -3 12 -1 16 5 3 5 9 10 12 10 3 0 -1 -8 -8 -17z m209 -8 c-3 -3 -9 2 -12
12 -6 14 -5 15 5 6 7 -7 10 -15 7 -18z m255 0 c-7 -21 -12 -19 -10 4 0 11 5
18 9 15 4 -3 5 -11 1 -19z m152 2 c4 5 5 2 1 -4 -10 -19 -19 -16 -35 10 -13
21 -13 22 6 4 11 -9 23 -14 28 -10z m-2150 3 c3 -5 1 -10 -4 -10 -6 0 -11 5
-11 10 0 6 2 10 4 10 3 0 8 -4 11 -10z m636 -13 c-10 -9 -11 -8 -5 6 3 10 9
15 12 12 3 -3 0 -11 -7 -18z m95 10 c-17 -12 -17 -14 -2 -20 9 -4 16 -2 16 3
0 6 5 10 11 10 8 0 8 -4 -1 -15 -6 -8 -9 -18 -6 -23 6 -11 -27 -44 -40 -40 -5
1 -19 -3 -32 -10 -24 -14 -46 -7 -39 11 2 7 -5 17 -17 24 -15 9 -17 12 -5 13
8 0 20 -5 27 -12 6 -6 28 -12 49 -14 32 -2 34 -1 18 9 -11 6 -29 11 -39 12
-11 1 -21 7 -22 14 -2 8 -1 8 3 0 4 -8 8 -7 14 2 7 11 11 11 17 2 8 -12 52
-14 52 -2 0 4 -7 10 -16 13 -13 5 -14 9 -4 21 7 8 17 15 23 15 6 0 3 -6 -7
-13z m703 -10 c0 -9 -2 -8 -6 1 -2 6 -10 9 -15 6 -7 -4 -8 -2 -4 5 9 13 26 5
25 -12z m51 11 c0 -4 -4 -8 -9 -8 -6 0 -12 4 -15 8 -3 5 1 9 9 9 8 0 15 -4 15
-9z m345 2 c-3 -5 -12 -10 -18 -10 -7 0 -6 4 3 10 19 12 23 12 15 0z m262 -12
c-3 -8 -6 -5 -6 6 -1 11 2 17 5 13 3 -3 4 -12 1 -19z m-1012 2 c-3 -5 -12 -10
-18 -10 -7 0 -6 4 3 10 19 12 23 12 15 0z m800 0 c-3 -5 -12 -10 -18 -10 -7 0
-6 4 3 10 19 12 23 12 15 0z m-1595 -4 c0 -3 -4 -8 -10 -11 -5 -3 -10 -1 -10
4 0 6 5 11 10 11 6 0 10 -2 10 -4z m313 -31 c-7 -21 -12 -19 -10 4 0 11 5 18
9 15 4 -3 5 -11 1 -19z m-359 7 c3 -5 -1 -9 -9 -9 -8 0 -12 4 -9 9 3 4 7 8 9
8 2 0 6 -4 9 -8z m181 -1 c3 -5 2 -12 -3 -15 -5 -3 -9 1 -9 9 0 17 3 19 12 6z
m22 -13 c-3 -8 -6 -5 -6 6 -1 11 2 17 5 13 3 -3 4 -12 1 -19z m53 7 c11 -13
10 -14 -5 -9 -14 6 -16 4 -10 -6 5 -8 4 -11 -3 -6 -6 4 -9 13 -5 21 7 19 8 19
23 0z m-393 -25 c-5 -31 -13 -32 -12 -1 0 16 3 27 7 25 4 -3 6 -14 5 -24z
m241 5 c-3 -3 -9 2 -12 12 -6 14 -5 15 5 6 7 -7 10 -15 7 -18z m-115 1 c3 3 4
-1 3 -10 -1 -9 -12 -23 -23 -31 -17 -12 -23 -12 -32 -2 -15 19 15 62 33 48 7
-6 15 -8 19 -5z m322 4 c-3 -5 -14 -10 -23 -9 -14 0 -13 2 3 9 27 11 27 11 20
0z m915 -1 c0 -5 4 -8 8 -5 4 2 14 1 21 -3 9 -6 10 -11 2 -15 -6 -4 -11 -3
-11 2 0 9 -15 12 -59 13 -18 1 -21 3 -10 10 19 12 49 11 49 -2z m450 -5 c0 -8
-19 -13 -24 -6 -3 5 1 9 9 9 8 0 15 -2 15 -3z m90 -15 c-12 -22 -31 -21 -38 1
-3 7 0 10 5 7 5 -3 15 -2 23 4 21 13 22 11 10 -12z"/>
<path d="M460 2046 c0 -2 8 -10 18 -17 15 -13 16 -12 3 4 -13 16 -21 21 -21
13z"/>
<path d="M543 1974 c4 -7 7 -16 6 -20 -3 -21 2 -35 11 -29 14 9 12 20 -7 42
-10 10 -14 14 -10 7z"/>
<path d="M582 1874 c10 -10 20 -16 22 -13 3 3 -5 11 -17 18 -21 13 -21 12 -5
-5z"/>
<path d="M906 178 c3 -5 10 -6 15 -3 13 9 11 12 -6 12 -8 0 -12 -4 -9 -9z"/>
<path d="M836 148 c3 -5 10 -6 15 -3 13 9 11 12 -6 12 -8 0 -12 -4 -9 -9z"/>
<path d="M370 161 c-12 -24 -1 -34 21 -17 14 9 14 13 3 24 -11 10 -15 8 -24
-7z"/>
<path d="M2512 2440 c0 -14 2 -19 5 -12 2 6 2 18 0 25 -3 6 -5 1 -5 -13z"/>
<path d="M2555 2440 c-3 -5 -1 -10 4 -10 6 0 11 5 11 10 0 6 -2 10 -4 10 -3 0
-8 -4 -11 -10z"/>
<path d="M2281 2407 c-8 -10 -7 -14 2 -14 8 0 14 6 14 14 0 7 -1 13 -2 13 -2
0 -8 -6 -14 -13z"/>
<path d="M2540 2406 c0 -2 8 -10 18 -17 15 -13 16 -12 3 4 -13 16 -21 21 -21
13z"/>
<path d="M2496 2311 c-3 -5 1 -14 9 -21 8 -7 12 -17 8 -23 -4 -6 -1 -7 6 -3 9
6 9 12 -3 25 -9 10 -13 21 -9 24 3 4 4 7 0 7 -3 0 -8 -4 -11 -9z"/>
<path d="M2463 2254 c0 -6 9 -9 19 -6 10 2 18 7 18 11 0 4 -8 7 -18 7 -10 0
-19 -5 -19 -12z"/>
<path d="M2055 2230 c-3 -6 1 -7 9 -4 9 3 16 3 16 -1 0 -11 -28 -35 -33 -27
-2 4 -2 1 0 -6 1 -8 -3 -12 -9 -9 -7 2 -12 13 -11 23 1 10 0 13 -3 6 -3 -6
-10 -10 -15 -7 -5 4 -6 0 -4 -7 3 -7 14 -19 24 -25 16 -10 22 -8 36 13 9 13
21 22 26 18 7 -4 7 1 0 15 -13 23 -26 27 -36 11z"/>
<path d="M2495 2220 c-3 -5 -1 -10 4 -10 6 0 11 5 11 10 0 6 -2 10 -4 10 -3 0
-8 -4 -11 -10z"/>
<path d="M2444 2190 c3 -14 5 -27 5 -29 1 -2 7 2 14 8 8 6 16 9 19 6 2 -3 5 1
5 9 0 8 -6 12 -15 9 -8 -3 -18 0 -23 8 -6 10 -8 6 -5 -11z"/>
<path d="M1917 2158 c-7 -5 0 -6 17 -4 16 3 31 7 33 10 8 8 -37 2 -50 -6z"/>
<path d="M2464 2149 c-3 -6 -2 -15 4 -21 6 -6 12 -6 17 3 6 8 4 10 -5 4 -10
-6 -12 -4 -7 8 7 19 2 23 -9 6z"/>
<path d="M1955 2140 c-4 -6 -4 -14 -1 -17 7 -8 -13 -33 -26 -33 -6 0 -5 7 2
15 7 9 10 18 6 22 -3 3 -6 1 -6 -7 0 -10 -4 -10 -17 1 -16 13 -17 12 -5 -3 10
-13 10 -17 0 -21 -11 -4 -10 -6 0 -6 7 -1 11 -5 8 -9 -3 -5 1 -9 9 -9 8 0 15
5 15 11 0 6 5 4 10 -4 6 -10 10 -11 10 -2 0 22 2 27 10 37 5 6 5 17 1 24 -6
10 -10 10 -16 1z"/>
<path d="M576 2042 c-2 -4 -1 -14 4 -22 7 -11 9 -9 7 8 -1 24 -3 26 -11 14z"/>
<path d="M1890 2031 c0 -7 -4 -9 -10 -6 -5 3 -10 1 -10 -4 0 -6 4 -11 9 -11
13 0 25 20 17 27 -3 4 -6 1 -6 -6z"/>
<path d="M610 2020 c0 -5 5 -10 11 -10 5 0 7 5 4 10 -3 6 -8 10 -11 10 -2 0
-4 -4 -4 -10z"/>
<path d="M1906 2015 c-3 -9 3 -19 15 -26 18 -9 19 -9 10 9 -6 11 -7 22 -4 26
3 3 2 6 -4 6 -6 0 -13 -7 -17 -15z"/>
<path d="M2494 2023 c3 -4 18 -8 32 -9 14 -2 24 0 20 3 -3 3 -17 7 -32 9 -14
1 -23 0 -20 -3z"/>
<path d="M2467 2014 c-12 -12 -8 -24 8 -24 18 0 18 -5 5 -31 -7 -13 -7 -19 0
-19 5 0 10 7 10 16 0 8 5 12 11 9 6 -4 8 -13 6 -19 -3 -7 1 -13 9 -13 10 0 8
9 -8 36 -28 47 -33 53 -41 45z"/>
<path d="M567 1999 c7 -7 15 -10 18 -7 3 3 -2 9 -12 12 -14 6 -15 5 -6 -5z"/>
<path d="M639 2008 c-5 -18 -6 -38 -1 -34 7 8 12 36 6 36 -2 0 -4 -1 -5 -2z"/>
<path d="M1815 1990 c6 -10 4 -12 -8 -7 -9 3 -18 3 -21 -1 -3 -4 4 -8 14 -9
23 -2 35 13 19 23 -8 5 -9 3 -4 -6z"/>
<path d="M595 1980 c-3 -5 -1 -18 5 -27 9 -15 10 -14 4 6 -4 17 -3 21 6 16 9
-5 11 -4 6 3 -9 15 -13 15 -21 2z"/>
<path d="M2530 1980 c0 -5 5 -10 11 -10 5 0 7 5 4 10 -3 6 -8 10 -11 10 -2 0
-4 -4 -4 -10z"/>
<path d="M1715 1969 c-4 -6 -5 -12 -2 -15 2 -3 7 2 10 11 7 17 1 20 -8 4z"/>
<path d="M2454 1945 c0 -19 4 -35 9 -35 5 0 4 -6 -2 -14 -8 -10 -8 -16 2 -25
8 -6 17 -8 20 -4 4 3 7 1 7 -5 0 -7 -4 -12 -8 -12 -5 0 -8 -13 -8 -30 0 -16 2
-28 4 -25 3 3 10 0 17 -5 8 -7 12 -5 12 5 0 8 -4 12 -9 9 -12 -7 -2 56 11 69
6 6 11 15 11 21 0 5 -6 2 -13 -8 -13 -17 -14 -17 -28 0 -13 16 -12 17 4 11 11
-4 16 -3 12 3 -3 6 0 10 7 10 7 1 1 7 -14 15 -19 11 -25 20 -21 35 3 11 1 20
-3 20 -5 0 -9 -16 -10 -35z"/>
<path d="M1736 1962 c-2 -4 9 -8 25 -8 33 -2 33 4 1 11 -12 2 -24 1 -26 -3z"/>
<path d="M630 1950 c0 -5 5 -10 11 -10 5 0 7 5 4 10 -3 6 -8 10 -11 10 -2 0
-4 -4 -4 -10z"/>
<path d="M679 1933 c-13 -17 -13 -17 6 -3 11 8 22 16 24 17 2 2 0 3 -6 3 -6 0
-17 -8 -24 -17z"/>
<path d="M711 1913 c7 -12 15 -20 18 -17 3 2 -3 12 -13 22 -17 16 -18 16 -5
-5z"/>
<path d="M1704 1915 c-4 -8 -11 -12 -17 -8 -6 4 -7 1 -2 -7 6 -10 11 -10 20 3
7 9 16 13 20 9 5 -4 5 -1 1 6 -9 16 -15 15 -22 -3z"/>
<path d="M765 1899 c-4 -6 -5 -12 -2 -15 2 -3 7 2 10 11 7 17 1 20 -8 4z"/>
<path d="M741 1874 c0 -11 3 -14 6 -6 3 7 2 16 -1 19 -3 4 -6 -2 -5 -13z"/>
<path d="M792 1879 c-19 -7 -23 -29 -6 -29 3 0 2 5 -1 10 -5 9 16 15 38 11 5
-1 6 3 2 9 -3 5 -7 10 -8 9 -1 0 -12 -4 -25 -10z"/>
<path d="M1670 1880 c0 -5 5 -10 11 -10 5 0 7 5 4 10 -3 6 -8 10 -11 10 -2 0
-4 -4 -4 -10z"/>
<path d="M1615 1860 c3 -5 8 -10 11 -10 2 0 4 5 4 10 0 6 -5 10 -11 10 -5 0
-7 -4 -4 -10z"/>
<path d="M2510 1840 c0 -5 5 -10 11 -10 5 0 7 5 4 10 -3 6 -8 10 -11 10 -2 0
-4 -4 -4 -10z"/>
<path d="M2550 1836 c7 -7 13 -7 20 0 6 6 3 10 -10 10 -13 0 -16 -4 -10 -10z"/>
<path d="M626 1830 c6 -6 21 -13 34 -15 16 -3 20 -1 14 5 -6 6 -21 13 -34 15
-16 3 -20 1 -14 -5z"/>
<path d="M790 1831 c0 -5 5 -13 10 -16 6 -3 10 -2 10 4 0 5 -4 13 -10 16 -5 3
-10 2 -10 -4z"/>
<path d="M836 1827 c3 -10 9 -15 12 -12 3 3 0 11 -7 18 -10 9 -11 8 -5 -6z"/>
<path d="M869 1823 c-13 -16 -12 -17 4 -4 9 7 17 15 17 17 0 8 -8 3 -21 -13z"/>
<path d="M2553 1807 c0 -8 6 -14 14 -14 9 0 10 4 2 14 -6 7 -12 13 -14 13 -1
0 -2 -6 -2 -13z"/>
<path d="M1620 1788 c-10 -21 -10 -21 3 -6 8 10 18 14 22 10 5 -4 5 -1 1 6
-10 17 -14 15 -26 -10z"/>
<path d="M850 1791 c0 -6 4 -13 10 -16 6 -3 7 1 4 9 -7 18 -14 21 -14 7z"/>
<path d="M880 1760 c-8 -5 -12 -12 -9 -15 4 -3 12 1 19 10 14 17 11 19 -10 5z"/>
<path d="M745 1749 c-4 -6 -5 -12 -2 -15 2 -3 7 2 10 11 7 17 1 20 -8 4z"/>
<path d="M1593 1746 c-9 -11 -9 -15 0 -19 7 -3 14 3 14 14 2 22 2 22 -14 5z"/>
<path d="M896 1742 c-2 -4 2 -16 10 -27 8 -10 14 -14 14 -9 0 6 -6 16 -12 23
-11 11 -9 13 10 8 12 -3 20 -1 16 4 -6 11 -31 12 -38 1z"/>
<path d="M1516 1721 c-2 -3 13 -7 35 -7 22 -1 37 1 35 4 -8 7 -66 10 -70 3z"/>
<path d="M1670 1719 c0 -5 5 -7 10 -4 6 3 10 8 10 11 0 2 -4 4 -10 4 -5 0 -10
-5 -10 -11z"/>
<path d="M1006 1682 c-3 -5 1 -9 9 -9 8 0 12 4 9 9 -3 4 -7 8 -9 8 -2 0 -6 -4
-9 -8z"/>
<path d="M1079 1673 c-13 -17 -13 -17 6 -3 11 8 22 16 24 17 2 2 0 3 -6 3 -6
0 -17 -8 -24 -17z"/>
<path d="M1515 1671 c-3 -5 0 -13 6 -17 7 -4 9 -3 5 4 -3 5 0 13 6 15 9 4 10
6 1 6 -6 1 -14 -3 -18 -8z"/>
<path d="M959 1658 c-7 -29 -5 -36 7 -31 16 6 18 19 4 28 -5 3 -10 5 -11 3z"/>
<path d="M1013 1645 c-3 -9 -3 -18 -1 -21 3 -3 8 4 11 16 6 23 -1 27 -10 5z"/>
<path d="M1417 1653 c-10 -9 -9 -23 1 -23 5 0 9 7 9 15 0 17 -1 18 -10 8z"/>
<path d="M1053 1631 c10 -12 9 -14 -6 -8 -11 4 -16 3 -12 -3 3 -6 1 -10 -6
-10 -7 0 -10 -3 -6 -6 9 -9 40 12 43 28 1 8 -4 15 -12 15 -11 0 -11 -3 -1 -16z"/>
<path d="M1500 1640 c0 -5 5 -10 11 -10 5 0 7 5 4 10 -3 6 -8 10 -11 10 -2 0
-4 -4 -4 -10z"/>
<path d="M1630 1640 c0 -5 5 -10 10 -10 6 0 10 5 10 10 0 6 -4 10 -10 10 -5 0
-10 -4 -10 -10z"/>
<path d="M898 1617 c8 -9 11 -21 7 -27 -10 -17 41 -60 54 -47 16 16 14 23 -15
35 -14 7 -23 16 -20 20 2 4 -5 14 -17 22 -20 12 -21 12 -9 -3z m62 -64 c0 -7
-39 17 -46 28 -3 6 5 3 20 -6 14 -10 26 -19 26 -22z"/>
<path d="M1186 1622 c-3 -5 1 -9 9 -9 8 0 15 4 15 9 0 4 -4 8 -9 8 -6 0 -12
-4 -15 -8z"/>
<path d="M1270 1625 c0 -5 5 -17 10 -25 5 -8 10 -10 10 -5 0 6 -5 17 -10 25
-5 8 -10 11 -10 5z"/>
<path d="M1579 1623 c-1 -1 -2 -6 -3 -10 -3 -18 -18 -33 -27 -27 -6 3 -5 -4 3
-15 l13 -22 21 26 c24 30 27 52 7 52 -7 0 -14 -2 -14 -4z m9 -33 c-7 -11 -14
-17 -17 -15 -2 3 1 11 7 18 7 8 8 18 4 22 -4 5 -1 5 5 1 10 -5 10 -11 1 -26z"/>
<path d="M2485 1620 c-3 -5 -2 -10 4 -10 5 0 13 5 16 10 3 6 2 10 -4 10 -5 0
-13 -4 -16 -10z"/>
<path d="M1130 1613 c0 -5 -10 -15 -22 -21 -13 -6 -18 -11 -12 -11 16 -1 50
27 41 35 -4 4 -7 3 -7 -3z"/>
<path d="M1155 1611 c-3 -5 -2 -12 3 -15 5 -3 9 1 9 9 0 17 -3 19 -12 6z"/>
<path d="M1230 1595 c0 -8 2 -15 4 -15 2 0 6 7 10 15 3 8 1 15 -4 15 -6 0 -10
-7 -10 -15z"/>
<path d="M1390 1600 c-13 -8 -12 -10 3 -10 9 0 17 5 17 10 0 12 -1 12 -20 0z"/>
<path d="M2510 1600 c0 -5 5 -10 11 -10 5 0 7 5 4 10 -3 6 -8 10 -11 10 -2 0
-4 -4 -4 -10z"/>
<path d="M2471 1586 c-10 -12 -6 -26 10 -26 11 0 19 29 10 35 -5 2 -14 -1 -20
-9z"/>
<path d="M1453 1544 c0 -17 24 -27 33 -13 3 5 14 7 25 4 10 -4 19 -2 19 3 0 5
-6 9 -12 10 -7 1 -25 3 -39 6 -17 2 -26 -1 -26 -10z"/>
<path d="M990 1540 c0 -5 -7 -16 -16 -25 -28 -28 -6 -29 26 -1 17 14 30 26 28
27 -26 6 -38 6 -38 -1z"/>
<path d="M1057 1523 c5 -12 57 -12 70 1 7 7 2 8 -43 10 -22 2 -30 -2 -27 -11z"/>
<path d="M1190 1519 c0 -5 5 -7 10 -4 6 3 10 8 10 11 0 2 -4 4 -10 4 -5 0 -10
-5 -10 -11z"/>
<path d="M1360 1520 c-9 -6 -10 -10 -3 -10 6 0 15 5 18 10 8 12 4 12 -15 0z"/>
<path d="M2545 1519 c-3 -4 2 -6 10 -5 21 3 28 13 10 13 -9 0 -18 -4 -20 -8z"/>
<path d="M1154 1503 c2 -9 8 -19 15 -21 10 -3 10 0 2 17 -14 25 -20 27 -17 4z"/>
<path d="M1227 1509 c7 -7 15 -10 18 -7 3 3 -2 9 -12 12 -14 6 -15 5 -6 -5z"/>
<path d="M2465 1413 c1 -33 22 -51 38 -34 10 11 9 13 -5 8 -10 -3 -20 -2 -23
3 -3 5 3 11 13 14 26 9 23 31 -3 31 -16 0 -21 -6 -20 -22z"/>
<path d="M2510 1360 c0 -5 5 -10 11 -10 5 0 7 5 4 10 -3 6 -8 10 -11 10 -2 0
-4 -4 -4 -10z"/>
<path d="M2480 1350 c8 -5 10 -10 4 -10 -6 0 -11 -7 -11 -16 0 -15 2 -14 13 1
14 19 10 35 -9 35 -7 0 -6 -4 3 -10z"/>
<path d="M2550 1336 c0 -2 8 -10 18 -17 15 -13 16 -12 3 4 -13 16 -21 21 -21
13z"/>
<path d="M2485 1300 c-3 -5 -2 -10 4 -10 5 0 13 5 16 10 3 6 2 10 -4 10 -5 0
-13 -4 -16 -10z"/>
<path d="M2510 1280 c0 -5 5 -10 11 -10 5 0 7 5 4 10 -3 6 -8 10 -11 10 -2 0
-4 -4 -4 -10z"/>
<path d="M2471 1266 c-9 -11 -9 -16 0 -22 7 -4 15 -2 17 4 2 7 9 9 15 5 7 -4
6 1 -2 10 -16 21 -16 20 -30 3z"/>
<path d="M2550 1241 c0 -6 4 -13 10 -16 6 -3 7 1 4 9 -7 18 -14 21 -14 7z"/>
<path d="M2545 1199 c-3 -4 2 -6 10 -5 21 3 28 13 10 13 -9 0 -18 -4 -20 -8z"/>
<path d="M2464 1093 c0 -26 5 -28 26 -10 23 18 21 32 -4 32 -16 0 -22 -6 -22
-22z"/>
<path d="M2485 1060 c-3 -5 -2 -10 4 -10 5 0 13 5 16 10 3 6 2 10 -4 10 -5 0
-13 -4 -16 -10z"/>
<path d="M2510 1040 c0 -5 5 -10 11 -10 5 0 7 5 4 10 -3 6 -8 10 -11 10 -2 0
-4 -4 -4 -10z"/>
<path d="M2480 1030 c8 -5 10 -10 4 -10 -6 0 -11 -7 -11 -16 0 -15 2 -14 13 1
14 19 10 35 -9 35 -7 0 -6 -4 3 -10z"/>
<path d="M2485 980 c-3 -5 -2 -10 4 -10 5 0 13 5 16 10 3 6 2 10 -4 10 -5 0
-13 -4 -16 -10z"/>
<path d="M2510 960 c0 -5 5 -10 11 -10 5 0 7 5 4 10 -3 6 -8 10 -11 10 -2 0
-4 -4 -4 -10z"/>
<path d="M2471 946 c-9 -11 -9 -16 0 -22 7 -4 15 -2 17 4 2 7 9 9 15 5 7 -4 6
1 -2 10 -16 21 -16 20 -30 3z"/>
<path d="M2550 921 c0 -6 4 -13 10 -16 6 -3 7 1 4 9 -7 18 -14 21 -14 7z"/>
<path d="M2545 879 c-3 -4 2 -6 10 -5 21 3 28 13 10 13 -9 0 -18 -4 -20 -8z"/>
<path d="M2464 773 c0 -26 5 -28 26 -10 23 18 21 32 -4 32 -16 0 -22 -6 -22
-22z"/>
<path d="M2485 740 c-3 -5 -2 -10 4 -10 5 0 13 5 16 10 3 6 2 10 -4 10 -5 0
-13 -4 -16 -10z"/>
<path d="M2510 720 c0 -5 5 -10 11 -10 5 0 7 5 4 10 -3 6 -8 10 -11 10 -2 0
-4 -4 -4 -10z"/>
<path d="M2480 710 c8 -5 10 -10 4 -10 -6 0 -11 -7 -11 -16 0 -15 2 -14 13 1
14 19 10 35 -9 35 -7 0 -6 -4 3 -10z"/>
<path d="M2485 660 c-3 -5 -2 -10 4 -10 5 0 13 5 16 10 3 6 2 10 -4 10 -5 0
-13 -4 -16 -10z"/>
<path d="M2510 640 c0 -5 5 -10 11 -10 5 0 7 5 4 10 -3 6 -8 10 -11 10 -2 0
-4 -4 -4 -10z"/>
<path d="M2461 616 c-19 -21 -20 -24 -6 -30 9 -3 14 -10 10 -15 -5 -10 12 -26
29 -26 5 0 11 -6 14 -14 3 -8 0 -11 -7 -7 -6 4 -11 2 -11 -3 0 -6 -5 -11 -11
-11 -5 0 -7 5 -3 12 4 7 3 8 -4 4 -9 -5 -9 -13 -2 -26 7 -13 7 -21 -1 -25 -7
-5 -5 -13 6 -25 13 -14 13 -19 3 -24 -7 -3 -2 -3 11 0 17 5 21 3 16 -6 -6 -9
-4 -11 5 -5 10 6 10 11 -3 20 -19 14 -23 30 -5 19 6 -4 4 3 -5 17 -16 23 -16
24 5 40 18 14 20 20 10 31 -6 8 -9 17 -6 21 3 3 -4 8 -15 12 -12 3 -19 11 -15
16 4 6 10 6 18 0 9 -8 13 -7 13 4 0 8 -5 11 -10 8 -6 -4 -8 0 -4 10 10 27 -8
28 -32 3z m17 -6 c-7 -10 -14 -17 -17 -15 -4 4 18 35 25 35 2 0 -1 -9 -8 -20z
m12 -50 c0 -5 -2 -10 -4 -10 -3 0 -8 5 -11 10 -3 6 -1 10 4 10 6 0 11 -4 11
-10z"/>
<path d="M2550 566 c0 -2 7 -7 16 -10 8 -3 12 -2 9 4 -6 10 -25 14 -25 6z"/>
<path d="M2535 529 c-4 -6 -5 -12 -2 -15 2 -3 7 2 10 11 7 17 1 20 -8 4z"/>
<path d="M2526 405 c-11 -8 -15 -15 -9 -15 6 0 16 7 23 15 16 19 11 19 -14 0z"/>
<path d="M2556 358 c3 -5 10 -6 15 -3 13 9 11 12 -6 12 -8 0 -12 -4 -9 -9z"/>
<path d="M2485 340 c-10 -11 -22 -17 -26 -14 -5 3 -9 0 -9 -5 0 -6 3 -11 8
-12 4 0 15 -2 25 -4 15 -3 16 -1 6 11 -7 8 -7 14 -1 14 5 0 12 7 16 15 7 20 3
19 -19 -5z"/>
<path d="M2436 284 c-9 -9 -14 -19 -11 -23 4 -3 13 3 21 13 16 23 19 13 4 -15
-8 -15 -15 -17 -29 -10 -13 8 -18 6 -18 -5 0 -8 6 -13 13 -10 8 3 18 -3 24
-12 8 -13 10 -13 8 -2 -1 8 4 26 11 39 17 30 0 49 -23 25z"/>
<path d="M2467 247 c-3 -7 3 -13 14 -13 13 0 15 3 7 13 -6 7 -12 13 -13 13 -2
0 -5 -6 -8 -13z"/>
<path d="M1318 216 c-10 -7 -18 -16 -18 -20 0 -9 24 -3 33 9 5 6 7 4 5 -5 -3
-8 -16 -15 -29 -15 -14 -1 -32 -5 -40 -9 -8 -4 -6 -1 4 7 19 16 23 32 5 20
-19 -11 -58 -11 -58 0 0 5 -7 4 -15 -3 -12 -10 -15 -10 -15 0 0 10 -3 10 -14
1 -11 -9 -15 -9 -19 1 -4 10 -6 10 -6 -1 -1 -11 -4 -11 -16 -1 -11 10 -18 10
-29 1 -11 -9 -15 -9 -19 1 -4 10 -6 10 -6 -1 -1 -11 -4 -11 -16 -1 -12 10 -15
10 -15 0 0 -10 -4 -10 -16 1 -13 10 -17 10 -24 -1 -5 -8 -6 -18 -4 -22 9 -14
-13 -9 -25 5 -6 8 -7 18 -3 22 4 5 2 5 -4 2 -8 -5 -11 -46 -5 -76 1 -3 13 6
27 20 23 21 25 22 22 5 -1 -11 4 -21 12 -23 13 -4 13 -3 0 6 -13 10 -8 15 13
12 4 0 7 4 7 9 0 6 -7 10 -17 10 -21 0 -8 13 17 17 12 2 19 -2 17 -10 -1 -6 6
-12 15 -12 21 0 36 -15 17 -16 -8 -1 -19 -1 -26 0 -17 2 -23 -13 -11 -29 8
-12 9 -11 4 4 -4 13 -2 17 8 13 7 -3 24 2 37 11 20 14 22 14 16 0 -4 -11 0
-15 11 -13 9 1 20 -5 24 -14 6 -12 7 -12 5 4 -2 11 -8 19 -14 18 -6 -1 -14 4
-17 12 -7 20 3 19 42 -5 38 -23 57 -19 42 10 -7 13 -6 19 5 24 8 3 17 1 20 -4
4 -6 1 -10 -6 -10 -8 0 -5 -7 6 -20 20 -22 37 -18 28 7 -4 11 -3 14 5 9 7 -4
12 -2 12 4 0 6 5 8 10 5 8 -5 7 -11 -1 -21 -6 -8 -9 -17 -6 -21 4 -3 9 1 13
10 5 15 8 15 29 1 13 -9 29 -13 35 -9 5 3 10 1 10 -6 0 -7 3 -9 6 -6 13 13
-19 38 -40 31 -20 -6 -20 -5 -4 12 16 17 19 17 36 1 10 -9 22 -14 27 -10 4 5
6 1 3 -7 -4 -12 1 -16 17 -16 13 0 21 4 19 8 -3 5 -9 6 -14 3 -4 -3 -11 2 -14
11 -9 25 -8 26 19 8 13 -8 29 -13 35 -9 5 3 10 2 10 -4 0 -5 -5 -12 -10 -14
-6 -3 -5 -4 2 -3 7 2 13 11 13 21 0 10 6 20 14 23 8 3 11 1 8 -4 -3 -5 1 -20
9 -34 7 -14 13 -20 13 -15 1 6 -3 17 -9 25 -6 9 -5 20 3 30 6 8 7 12 2 7 -4
-4 -17 1 -28 10 -17 15 -19 15 -15 2 4 -9 1 -16 -7 -16 -7 0 -11 7 -8 16 3 10
1 12 -4 6 -14 -17 -32 -15 -38 5 -6 18 -8 18 -29 5 -12 -8 -26 -12 -31 -8 -4
5 -5 2 -1 -4 4 -7 3 -13 -2 -13 -5 0 -13 9 -18 19 -8 17 -12 18 -26 7z m123
-31 c5 4 9 1 9 -5 0 -7 7 -9 18 -5 13 5 14 4 5 -6 -9 -9 -17 -9 -35 3 -25 16
-52 13 -41 -5 4 -7 -1 -6 -10 2 -19 15 -13 33 8 24 9 -3 15 1 15 8 1 9 4 8 11
-4 6 -9 14 -15 20 -12z m-307 6 c3 -5 0 -14 -8 -20 -10 -9 -15 -8 -19 3 -9 22
15 37 27 17z m-44 -11 c0 -5 -5 -10 -11 -10 -5 0 -7 5 -4 10 3 6 8 10 11 10 2
0 4 -4 4 -10z m115 2 c-2 -3 0 -14 6 -24 6 -11 7 -19 2 -16 -71 33 -79 44 -33
44 16 0 28 -2 25 -4z m145 4 c0 -2 -6 -9 -14 -15 -11 -9 -16 -9 -22 0 -4 7 -3
9 4 5 6 -3 13 -2 17 4 6 10 15 14 15 6z m-366 -36 c-6 -6 -10 -3 -10 10 0 13
4 16 10 10 7 -7 7 -13 0 -20z m280 4 c3 -8 2 -12 -4 -9 -6 3 -10 10 -10 16 0
14 7 11 14 -7z"/>
<path d="M1551 220 c-11 -6 -10 -9 0 -16 16 -10 39 -14 39 -7 0 13 -28 30 -39
23z"/>
<path d="M1798 216 c-22 -16 -23 -26 -3 -26 8 0 15 5 15 12 0 6 3 8 6 5 10
-10 -17 -38 -29 -30 -5 3 -7 1 -3 -5 3 -6 2 -13 -4 -17 -5 -3 -10 -12 -10 -18
1 -7 6 -5 13 4 11 15 15 15 32 3 11 -8 25 -12 32 -10 7 3 13 0 13 -6 0 -6 3
-8 6 -5 13 13 -19 38 -40 31 -20 -6 -20 -5 -4 12 16 17 19 17 36 1 10 -9 22
-14 27 -10 4 5 6 1 3 -7 -4 -12 1 -16 17 -16 13 0 21 4 19 8 -3 5 -9 6 -14 3
-4 -3 -11 2 -14 11 -9 25 -8 26 19 8 13 -8 29 -13 35 -9 5 3 10 2 10 -4 0 -5
-5 -12 -10 -14 -6 -3 -5 -4 2 -3 7 2 13 9 13 17 1 8 7 23 14 34 12 20 12 20 8
-1 -2 -12 2 -32 9 -45 7 -13 13 -20 14 -16 0 5 -5 17 -10 27 -8 15 -5 22 12
34 12 9 18 19 14 23 -4 4 -10 2 -15 -5 -5 -9 -13 -7 -28 8 -21 19 -21 19 -46
-1 -25 -19 -26 -19 -32 1 -6 18 -8 18 -29 5 -12 -8 -26 -12 -31 -8 -4 5 -5 2
-1 -4 4 -7 3 -13 -2 -13 -5 0 -13 9 -18 19 -8 17 -12 18 -26 7z m129 -24 c21
17 41 18 39 2 -4 -29 -24 -38 -48 -22 -25 16 -52 13 -41 -5 4 -7 -1 -6 -10 2
-19 15 -13 33 8 24 9 -3 15 1 15 8 1 9 4 8 11 -4 9 -15 13 -16 26 -5z m-97 -6
c0 -2 -8 -10 -17 -17 -16 -13 -17 -12 -4 4 13 16 21 21 21 13z"/>
<path d="M1935 189 c-10 -15 3 -25 16 -12 7 7 7 13 1 17 -6 3 -14 1 -17 -5z"/>
<path d="M1670 198 c0 -6 3 -8 7 -5 11 12 42 -24 37 -41 -5 -14 -4 -14 6 1 6
9 16 17 22 17 7 0 7 -5 -1 -14 -9 -10 -9 -16 -1 -21 6 -4 14 -4 17 -1 4 3 0 6
-7 6 -9 0 -6 7 8 20 12 11 19 27 16 35 -8 20 -20 19 -28 -1 -5 -13 -9 -14 -21
-4 -8 7 -15 9 -15 4 0 -4 -5 -3 -12 4 -15 15 -28 15 -28 0z m100 -12 c0 -3 -4
-8 -10 -11 -5 -3 -10 -1 -10 4 0 6 5 11 10 11 6 0 10 -2 10 -4z"/>
<path d="M2437 193 c-10 -9 -9 -23 1 -23 5 0 9 7 9 15 0 17 -1 18 -10 8z"/>
<path d="M318 164 c-7 -8 -21 -24 -30 -35 -21 -22 -16 -24 12 -7 16 11 22 9
35 -7 16 -20 16 -20 6 1 -6 12 -8 31 -6 43 5 25 0 26 -17 5z"/>
<path d="M750 163 c0 -6 -13 -16 -30 -23 -29 -12 -41 -30 -19 -30 5 0 7 -6 3
-12 -5 -9 -2 -9 9 1 18 15 23 26 7 16 -5 -3 -10 -1 -10 4 0 6 11 10 25 9 29
-3 31 -7 8 -23 -13 -9 -13 -14 -3 -20 7 -5 11 -4 8 1 -6 12 28 44 39 36 4 -4
-1 4 -12 18 -11 14 -21 27 -22 29 -2 2 -3 0 -3 -6z m14 -21 c3 -5 -1 -9 -9 -9
-8 0 -12 4 -9 9 3 4 7 8 9 8 2 0 6 -4 9 -8z"/>
<path d="M634 136 c1 -13 7 -30 14 -38 6 -8 9 -17 6 -21 -3 -3 4 -3 16 0 l21
6 -22 11 c-24 12 -28 28 -8 35 7 2 9 -1 5 -8 -4 -6 -3 -11 1 -11 12 0 33 37
26 44 -3 3 -13 0 -21 -7 -12 -9 -16 -9 -19 1 -8 21 -20 13 -19 -12z"/>
<path d="M2264 128 c2 -7 7 -13 12 -13 5 0 16 -4 24 -10 13 -8 13 -7 1 8 -7 9
-17 15 -21 12 -5 -3 -11 0 -13 5 -3 6 -4 5 -3 -2z"/>
<path d="M2390 136 c0 -2 8 -10 18 -17 15 -13 16 -12 3 4 -13 16 -21 21 -21
13z"/>
<path d="M990 119 c0 -5 5 -7 10 -4 6 3 10 8 10 11 0 2 -4 4 -10 4 -5 0 -10
-5 -10 -11z"/>
<path d="M1225 120 c-3 -6 1 -7 9 -4 18 7 21 14 7 14 -6 0 -13 -4 -16 -10z"/>
<path d="M1300 120 c-8 -5 -10 -10 -5 -10 6 0 17 5 25 10 8 5 11 10 5 10 -5 0
-17 -5 -25 -10z"/>
<path d="M1479 113 c-12 -16 -12 -17 2 -6 9 7 19 10 22 6 4 -3 7 -1 7 5 0 17
-16 15 -31 -5z"/>
<path d="M1585 120 c-3 -6 1 -7 9 -4 18 7 21 14 7 14 -6 0 -13 -4 -16 -10z"/>
<path d="M1684 118 c-3 -4 5 -5 17 -3 30 6 36 14 9 12 -12 -1 -24 -5 -26 -9z"/>
<path d="M1780 120 c-8 -5 -10 -10 -5 -10 6 0 17 5 25 10 8 5 11 10 5 10 -5 0
-17 -5 -25 -10z"/>
<path d="M1959 113 c-12 -16 -12 -17 2 -6 9 7 19 10 22 6 4 -3 7 -1 7 5 0 17
-16 15 -31 -5z"/>
<path d="M2065 120 c-3 -6 1 -7 9 -4 18 7 21 14 7 14 -6 0 -13 -4 -16 -10z"/>
<path d="M2125 120 c-3 -6 1 -7 9 -4 18 7 21 14 7 14 -6 0 -13 -4 -16 -10z"/>
<path d="M2194 121 c4 -5 1 -12 -4 -14 -6 -3 -5 -4 2 -3 15 3 23 26 8 26 -6 0
-9 -4 -6 -9z"/>
<path d="M2337 115 c-4 -8 -3 -16 1 -19 4 -3 9 4 9 15 2 23 -3 25 -10 4z"/>
<path d="M1355 111 c-3 -5 -2 -12 3 -15 5 -3 9 1 9 9 0 17 -3 19 -12 6z"/>
<path d="M1431 113 c-1 -17 16 -25 25 -12 4 7 3 9 -4 5 -5 -3 -13 0 -15 6 -4
9 -6 10 -6 1z"/>
<path d="M1835 111 c-3 -5 -2 -12 3 -15 5 -3 9 1 9 9 0 17 -3 19 -12 6z"/>
<path d="M1911 113 c-1 -17 16 -25 25 -12 4 7 3 9 -4 5 -5 -3 -13 0 -15 6 -4
9 -6 10 -6 1z"/>
<path d="M413 95 c-3 -9 -3 -18 -1 -21 3 -3 8 4 11 16 6 23 -1 27 -10 5z"/>
<path d="M776 102 c-2 -4 0 -14 6 -22 8 -12 9 -12 5 2 -3 9 -1 19 6 22 9 3 9
5 0 5 -6 1 -14 -3 -17 -7z"/>
<path d="M975 91 c-3 -5 -2 -12 3 -15 5 -3 9 1 9 9 0 17 -3 19 -12 6z"/>
<path d="M456 78 c3 -5 10 -6 15 -3 13 9 11 12 -6 12 -8 0 -12 -4 -9 -9z"/>
<path d="M816 78 c3 -4 11 -5 19 -1 21 7 19 12 -4 10 -11 0 -18 -5 -15 -9z"/>
<path d="M864 82 c4 -3 14 -7 22 -8 9 -1 13 0 10 4 -4 3 -14 7 -22 8 -9 1 -13
0 -10 -4z"/>
<path d="M1070 80 c0 -5 5 -10 11 -10 5 0 7 5 4 10 -3 6 -8 10 -11 10 -2 0 -4
-4 -4 -10z"/>
<path d="M1310 80 c0 -5 5 -10 11 -10 5 0 7 5 4 10 -3 6 -8 10 -11 10 -2 0 -4
-4 -4 -10z"/>
<path d="M1790 80 c0 -5 5 -10 11 -10 5 0 7 5 4 10 -3 6 -8 10 -11 10 -2 0 -4
-4 -4 -10z"/>
<path d="M1635 69 c-4 -6 -5 -12 -2 -15 2 -3 7 2 10 11 7 17 1 20 -8 4z"/>
<path d="M2276 67 c3 -10 9 -15 12 -12 3 3 0 11 -7 18 -10 9 -11 8 -5 -6z"/>
<path d="M933 55 c0 -8 4 -12 9 -9 5 3 6 10 3 15 -9 13 -12 11 -12 -6z"/>
<path d="M2216 58 c3 -4 11 -5 19 -1 21 7 19 12 -4 10 -11 0 -18 -5 -15 -9z"/>
<path d="M629 43 c-13 -16 -12 -17 4 -4 16 13 21 21 13 21 -2 0 -10 -8 -17
-17z"/>
<path d="M367 39 c7 -7 15 -10 18 -7 3 3 -2 9 -12 12 -14 6 -15 5 -6 -5z"/>
</g>
</svg>
